<mxfile host="app.diagrams.net" modified="2021-12-11T08:03:35.537Z" agent="5.0 (X11; Linux x86_64) AppleWebKit/537.36 (KHTML, like Gecko) Chrome/93.0.4577.82 YaBrowser/21.9.1.600 (beta) Yowser/2.5 Safari/537.36" etag="AXyzN6aifQz6O5C2xqt2" version="15.9.4" type="github">
  <diagram id="-3qTyUgSQW8smCoNh1RV" name="Page-1">
    <mxGraphModel dx="3076" dy="805" grid="1" gridSize="10" guides="1" tooltips="1" connect="1" arrows="1" fold="1" page="1" pageScale="1" pageWidth="827" pageHeight="1169" math="0" shadow="0">
      <root>
        <mxCell id="0" />
        <mxCell id="1" parent="0" />
        <mxCell id="cfINHwRxvX_QHTuSYm5q-5" style="edgeStyle=orthogonalEdgeStyle;rounded=0;orthogonalLoop=1;jettySize=auto;html=1;exitX=1;exitY=0.5;exitDx=0;exitDy=0;entryX=0;entryY=0.5;entryDx=0;entryDy=0;" parent="1" source="cfINHwRxvX_QHTuSYm5q-1" target="cfINHwRxvX_QHTuSYm5q-4" edge="1">
          <mxGeometry relative="1" as="geometry" />
        </mxCell>
        <mxCell id="cfINHwRxvX_QHTuSYm5q-45" style="edgeStyle=orthogonalEdgeStyle;rounded=0;orthogonalLoop=1;jettySize=auto;html=1;exitX=0;exitY=0.5;exitDx=0;exitDy=0;entryX=1;entryY=0.5;entryDx=0;entryDy=0;" parent="1" source="cfINHwRxvX_QHTuSYm5q-1" target="cfINHwRxvX_QHTuSYm5q-44" edge="1">
          <mxGeometry relative="1" as="geometry" />
        </mxCell>
        <mxCell id="cfINHwRxvX_QHTuSYm5q-1" value="GardenScapes" style="rounded=0;whiteSpace=wrap;html=1;" parent="1" vertex="1">
          <mxGeometry x="350" y="360" width="120" height="60" as="geometry" />
        </mxCell>
        <mxCell id="cfINHwRxvX_QHTuSYm5q-9" style="edgeStyle=orthogonalEdgeStyle;rounded=0;orthogonalLoop=1;jettySize=auto;html=1;exitX=1;exitY=0.5;exitDx=0;exitDy=0;entryX=0;entryY=0.5;entryDx=0;entryDy=0;" parent="1" source="cfINHwRxvX_QHTuSYm5q-4" target="cfINHwRxvX_QHTuSYm5q-6" edge="1">
          <mxGeometry relative="1" as="geometry" />
        </mxCell>
        <mxCell id="cfINHwRxvX_QHTuSYm5q-19" style="edgeStyle=orthogonalEdgeStyle;rounded=0;orthogonalLoop=1;jettySize=auto;html=1;exitX=1;exitY=0.5;exitDx=0;exitDy=0;entryX=0;entryY=0.5;entryDx=0;entryDy=0;" parent="1" source="cfINHwRxvX_QHTuSYm5q-4" target="cfINHwRxvX_QHTuSYm5q-13" edge="1">
          <mxGeometry relative="1" as="geometry" />
        </mxCell>
        <mxCell id="cfINHwRxvX_QHTuSYm5q-27" style="edgeStyle=orthogonalEdgeStyle;rounded=0;orthogonalLoop=1;jettySize=auto;html=1;exitX=1;exitY=0.5;exitDx=0;exitDy=0;entryX=0;entryY=0.5;entryDx=0;entryDy=0;" parent="1" source="cfINHwRxvX_QHTuSYm5q-4" target="cfINHwRxvX_QHTuSYm5q-26" edge="1">
          <mxGeometry relative="1" as="geometry" />
        </mxCell>
        <mxCell id="cfINHwRxvX_QHTuSYm5q-4" value="Интерфейс" style="rounded=1;whiteSpace=wrap;html=1;" parent="1" vertex="1">
          <mxGeometry x="500" y="360" width="120" height="60" as="geometry" />
        </mxCell>
        <mxCell id="cfINHwRxvX_QHTuSYm5q-10" style="edgeStyle=orthogonalEdgeStyle;rounded=0;orthogonalLoop=1;jettySize=auto;html=1;exitX=1;exitY=0.5;exitDx=0;exitDy=0;entryX=0;entryY=0.25;entryDx=0;entryDy=0;" parent="1" source="cfINHwRxvX_QHTuSYm5q-6" target="cfINHwRxvX_QHTuSYm5q-7" edge="1">
          <mxGeometry relative="1" as="geometry" />
        </mxCell>
        <mxCell id="cfINHwRxvX_QHTuSYm5q-11" style="edgeStyle=orthogonalEdgeStyle;rounded=0;orthogonalLoop=1;jettySize=auto;html=1;exitX=1;exitY=0.5;exitDx=0;exitDy=0;entryX=0;entryY=0.5;entryDx=0;entryDy=0;" parent="1" source="cfINHwRxvX_QHTuSYm5q-6" target="cfINHwRxvX_QHTuSYm5q-8" edge="1">
          <mxGeometry relative="1" as="geometry" />
        </mxCell>
        <mxCell id="cfINHwRxvX_QHTuSYm5q-6" value="Стартовый экран" style="rounded=1;whiteSpace=wrap;html=1;" parent="1" vertex="1">
          <mxGeometry x="680" y="220" width="120" height="60" as="geometry" />
        </mxCell>
        <mxCell id="cfINHwRxvX_QHTuSYm5q-7" value="Кнопка &quot;Играть&quot;&lt;span style=&quot;color: rgba(0 , 0 , 0 , 0) ; font-family: monospace ; font-size: 0px&quot;&gt;%3CmxGraphModel%3E%3Croot%3E%3CmxCell%20id%3D%220%22%2F%3E%3CmxCell%20id%3D%221%22%20parent%3D%220%22%2F%3E%3CmxCell%20id%3D%222%22%20value%3D%22%D0%A1%D1%82%D0%B0%D1%80%D1%82%D0%BE%D0%B2%D1%8B%D0%B9%20%D1%8D%D0%BA%D1%80%D0%B0%D0%BD%22%20style%3D%22rounded%3D1%3BwhiteSpace%3Dwrap%3Bhtml%3D1%3B%22%20vertex%3D%221%22%20parent%3D%221%22%3E%3CmxGeometry%20x%3D%22640%22%20y%3D%22220%22%20width%3D%22120%22%20height%3D%2260%22%20as%3D%22geometry%22%2F%3E%3C%2FmxCell%3E%3C%2Froot%3E%3C%2FmxGraphModel%3E&lt;/span&gt;" style="rounded=1;whiteSpace=wrap;html=1;" parent="1" vertex="1">
          <mxGeometry x="840" y="170" width="120" height="60" as="geometry" />
        </mxCell>
        <mxCell id="cfINHwRxvX_QHTuSYm5q-8" value="Кнопка &quot;Сохранить прогресс&quot;" style="rounded=1;whiteSpace=wrap;html=1;" parent="1" vertex="1">
          <mxGeometry x="840" y="250" width="120" height="60" as="geometry" />
        </mxCell>
        <mxCell id="cfINHwRxvX_QHTuSYm5q-21" style="edgeStyle=orthogonalEdgeStyle;rounded=0;orthogonalLoop=1;jettySize=auto;html=1;exitX=1;exitY=0.5;exitDx=0;exitDy=0;entryX=0;entryY=0.5;entryDx=0;entryDy=0;" parent="1" source="cfINHwRxvX_QHTuSYm5q-13" target="cfINHwRxvX_QHTuSYm5q-14" edge="1">
          <mxGeometry relative="1" as="geometry" />
        </mxCell>
        <mxCell id="cfINHwRxvX_QHTuSYm5q-22" style="edgeStyle=orthogonalEdgeStyle;rounded=0;orthogonalLoop=1;jettySize=auto;html=1;exitX=1;exitY=0.5;exitDx=0;exitDy=0;entryX=0;entryY=0.5;entryDx=0;entryDy=0;" parent="1" source="cfINHwRxvX_QHTuSYm5q-13" target="cfINHwRxvX_QHTuSYm5q-17" edge="1">
          <mxGeometry relative="1" as="geometry" />
        </mxCell>
        <mxCell id="cfINHwRxvX_QHTuSYm5q-13" value="Экран туториала" style="rounded=1;whiteSpace=wrap;html=1;" parent="1" vertex="1">
          <mxGeometry x="680" y="430" width="120" height="60" as="geometry" />
        </mxCell>
        <mxCell id="cfINHwRxvX_QHTuSYm5q-24" style="edgeStyle=orthogonalEdgeStyle;rounded=0;orthogonalLoop=1;jettySize=auto;html=1;exitX=1;exitY=0.5;exitDx=0;exitDy=0;entryX=0;entryY=0.5;entryDx=0;entryDy=0;" parent="1" source="cfINHwRxvX_QHTuSYm5q-14" target="cfINHwRxvX_QHTuSYm5q-15" edge="1">
          <mxGeometry relative="1" as="geometry" />
        </mxCell>
        <mxCell id="cfINHwRxvX_QHTuSYm5q-25" style="edgeStyle=orthogonalEdgeStyle;rounded=0;orthogonalLoop=1;jettySize=auto;html=1;exitX=1;exitY=0.5;exitDx=0;exitDy=0;entryX=0;entryY=0.5;entryDx=0;entryDy=0;" parent="1" source="cfINHwRxvX_QHTuSYm5q-14" target="cfINHwRxvX_QHTuSYm5q-16" edge="1">
          <mxGeometry relative="1" as="geometry" />
        </mxCell>
        <mxCell id="cfINHwRxvX_QHTuSYm5q-14" value="Ввод имени" style="rounded=1;whiteSpace=wrap;html=1;" parent="1" vertex="1">
          <mxGeometry x="840" y="380" width="120" height="60" as="geometry" />
        </mxCell>
        <mxCell id="cfINHwRxvX_QHTuSYm5q-15" value="Поле ввода" style="rounded=1;whiteSpace=wrap;html=1;" parent="1" vertex="1">
          <mxGeometry x="1010" y="340" width="120" height="60" as="geometry" />
        </mxCell>
        <mxCell id="cfINHwRxvX_QHTuSYm5q-16" value="Кнопка &quot;Ок&quot;" style="rounded=1;whiteSpace=wrap;html=1;" parent="1" vertex="1">
          <mxGeometry x="1020" y="420" width="120" height="60" as="geometry" />
        </mxCell>
        <mxCell id="cfINHwRxvX_QHTuSYm5q-23" style="edgeStyle=orthogonalEdgeStyle;rounded=0;orthogonalLoop=1;jettySize=auto;html=1;exitX=1;exitY=0.5;exitDx=0;exitDy=0;entryX=0;entryY=0.5;entryDx=0;entryDy=0;" parent="1" source="cfINHwRxvX_QHTuSYm5q-17" target="cfINHwRxvX_QHTuSYm5q-18" edge="1">
          <mxGeometry relative="1" as="geometry" />
        </mxCell>
        <mxCell id="cfINHwRxvX_QHTuSYm5q-17" value="Игровое окно" style="rounded=1;whiteSpace=wrap;html=1;" parent="1" vertex="1">
          <mxGeometry x="840" y="510" width="120" height="60" as="geometry" />
        </mxCell>
        <mxCell id="cfINHwRxvX_QHTuSYm5q-18" value="Туториал" style="rounded=1;whiteSpace=wrap;html=1;" parent="1" vertex="1">
          <mxGeometry x="1020" y="510" width="120" height="60" as="geometry" />
        </mxCell>
        <mxCell id="cfINHwRxvX_QHTuSYm5q-33" style="edgeStyle=orthogonalEdgeStyle;rounded=0;orthogonalLoop=1;jettySize=auto;html=1;exitX=1;exitY=0.5;exitDx=0;exitDy=0;entryX=0;entryY=0.5;entryDx=0;entryDy=0;" parent="1" source="cfINHwRxvX_QHTuSYm5q-26" target="cfINHwRxvX_QHTuSYm5q-32" edge="1">
          <mxGeometry relative="1" as="geometry" />
        </mxCell>
        <mxCell id="cfINHwRxvX_QHTuSYm5q-43" style="edgeStyle=orthogonalEdgeStyle;rounded=0;orthogonalLoop=1;jettySize=auto;html=1;exitX=1;exitY=0.5;exitDx=0;exitDy=0;entryX=0;entryY=0.5;entryDx=0;entryDy=0;" parent="1" source="cfINHwRxvX_QHTuSYm5q-26" target="cfINHwRxvX_QHTuSYm5q-42" edge="1">
          <mxGeometry relative="1" as="geometry" />
        </mxCell>
        <mxCell id="cfINHwRxvX_QHTuSYm5q-26" value="Игровой экран" style="rounded=1;whiteSpace=wrap;html=1;" parent="1" vertex="1">
          <mxGeometry x="680" y="670" width="120" height="60" as="geometry" />
        </mxCell>
        <mxCell id="cfINHwRxvX_QHTuSYm5q-28" value="Жизни" style="rounded=1;whiteSpace=wrap;html=1;" parent="1" vertex="1">
          <mxGeometry x="1020" y="625" width="120" height="30" as="geometry" />
        </mxCell>
        <mxCell id="cfINHwRxvX_QHTuSYm5q-29" value="Монеты&lt;span style=&quot;color: rgba(0 , 0 , 0 , 0) ; font-family: monospace ; font-size: 0px&quot;&gt;%3CmxGraphModel%3E%3Croot%3E%3CmxCell%20id%3D%220%22%2F%3E%3CmxCell%20id%3D%221%22%20parent%3D%220%22%2F%3E%3CmxCell%20id%3D%222%22%20value%3D%22%D0%96%D0%B8%D0%B7%D0%BD%D0%B8%22%20style%3D%22rounded%3D1%3BwhiteSpace%3Dwrap%3Bhtml%3D1%3B%22%20vertex%3D%221%22%20parent%3D%221%22%3E%3CmxGeometry%20x%3D%22840%22%20y%3D%22630%22%20width%3D%22120%22%20height%3D%2230%22%20as%3D%22geometry%22%2F%3E%3C%2FmxCell%3E%3C%2Froot%3E%3C%2FmxGraphModel%3E&lt;/span&gt;" style="rounded=1;whiteSpace=wrap;html=1;" parent="1" vertex="1">
          <mxGeometry x="1020" y="665" width="120" height="30" as="geometry" />
        </mxCell>
        <mxCell id="cfINHwRxvX_QHTuSYm5q-30" value="Звезды" style="rounded=1;whiteSpace=wrap;html=1;" parent="1" vertex="1">
          <mxGeometry x="1020" y="705" width="120" height="30" as="geometry" />
        </mxCell>
        <mxCell id="cfINHwRxvX_QHTuSYm5q-31" value="Настройки" style="rounded=1;whiteSpace=wrap;html=1;" parent="1" vertex="1">
          <mxGeometry x="1020" y="745" width="120" height="30" as="geometry" />
        </mxCell>
        <mxCell id="cfINHwRxvX_QHTuSYm5q-34" style="edgeStyle=orthogonalEdgeStyle;rounded=0;orthogonalLoop=1;jettySize=auto;html=1;exitX=1;exitY=0.5;exitDx=0;exitDy=0;entryX=0;entryY=0.5;entryDx=0;entryDy=0;" parent="1" source="cfINHwRxvX_QHTuSYm5q-32" target="cfINHwRxvX_QHTuSYm5q-28" edge="1">
          <mxGeometry relative="1" as="geometry" />
        </mxCell>
        <mxCell id="cfINHwRxvX_QHTuSYm5q-35" style="edgeStyle=orthogonalEdgeStyle;rounded=0;orthogonalLoop=1;jettySize=auto;html=1;exitX=1;exitY=0.5;exitDx=0;exitDy=0;entryX=0;entryY=0.5;entryDx=0;entryDy=0;" parent="1" source="cfINHwRxvX_QHTuSYm5q-32" target="cfINHwRxvX_QHTuSYm5q-29" edge="1">
          <mxGeometry relative="1" as="geometry" />
        </mxCell>
        <mxCell id="cfINHwRxvX_QHTuSYm5q-36" style="edgeStyle=orthogonalEdgeStyle;rounded=0;orthogonalLoop=1;jettySize=auto;html=1;exitX=1;exitY=0.5;exitDx=0;exitDy=0;" parent="1" source="cfINHwRxvX_QHTuSYm5q-32" target="cfINHwRxvX_QHTuSYm5q-30" edge="1">
          <mxGeometry relative="1" as="geometry" />
        </mxCell>
        <mxCell id="cfINHwRxvX_QHTuSYm5q-37" style="edgeStyle=orthogonalEdgeStyle;rounded=0;orthogonalLoop=1;jettySize=auto;html=1;exitX=1;exitY=0.5;exitDx=0;exitDy=0;entryX=0;entryY=0.5;entryDx=0;entryDy=0;" parent="1" source="cfINHwRxvX_QHTuSYm5q-32" target="cfINHwRxvX_QHTuSYm5q-31" edge="1">
          <mxGeometry relative="1" as="geometry" />
        </mxCell>
        <mxCell id="cfINHwRxvX_QHTuSYm5q-40" style="edgeStyle=orthogonalEdgeStyle;rounded=0;orthogonalLoop=1;jettySize=auto;html=1;exitX=1;exitY=0.5;exitDx=0;exitDy=0;entryX=0;entryY=0.5;entryDx=0;entryDy=0;" parent="1" source="cfINHwRxvX_QHTuSYm5q-32" target="cfINHwRxvX_QHTuSYm5q-38" edge="1">
          <mxGeometry relative="1" as="geometry" />
        </mxCell>
        <mxCell id="cfINHwRxvX_QHTuSYm5q-41" style="edgeStyle=orthogonalEdgeStyle;rounded=0;orthogonalLoop=1;jettySize=auto;html=1;exitX=1;exitY=0.5;exitDx=0;exitDy=0;entryX=0;entryY=0.5;entryDx=0;entryDy=0;" parent="1" source="cfINHwRxvX_QHTuSYm5q-32" target="cfINHwRxvX_QHTuSYm5q-39" edge="1">
          <mxGeometry relative="1" as="geometry" />
        </mxCell>
        <mxCell id="cfINHwRxvX_QHTuSYm5q-32" value="Панель управления" style="rounded=1;whiteSpace=wrap;html=1;" parent="1" vertex="1">
          <mxGeometry x="840" y="670" width="120" height="60" as="geometry" />
        </mxCell>
        <mxCell id="cfINHwRxvX_QHTuSYm5q-38" value="Задания" style="rounded=1;whiteSpace=wrap;html=1;" parent="1" vertex="1">
          <mxGeometry x="1020" y="785" width="120" height="30" as="geometry" />
        </mxCell>
        <mxCell id="cfINHwRxvX_QHTuSYm5q-39" value="Уровень" style="rounded=1;whiteSpace=wrap;html=1;" parent="1" vertex="1">
          <mxGeometry x="1020" y="825" width="120" height="30" as="geometry" />
        </mxCell>
        <mxCell id="cfINHwRxvX_QHTuSYm5q-42" value="Анимация" style="rounded=1;whiteSpace=wrap;html=1;" parent="1" vertex="1">
          <mxGeometry x="850" y="870" width="120" height="60" as="geometry" />
        </mxCell>
        <mxCell id="cfINHwRxvX_QHTuSYm5q-63" style="edgeStyle=orthogonalEdgeStyle;rounded=0;orthogonalLoop=1;jettySize=auto;html=1;exitX=0;exitY=0.5;exitDx=0;exitDy=0;entryX=1;entryY=0.5;entryDx=0;entryDy=0;" parent="1" source="cfINHwRxvX_QHTuSYm5q-44" target="cfINHwRxvX_QHTuSYm5q-48" edge="1">
          <mxGeometry relative="1" as="geometry" />
        </mxCell>
        <mxCell id="cfINHwRxvX_QHTuSYm5q-44" value="Логика" style="rounded=1;whiteSpace=wrap;html=1;" parent="1" vertex="1">
          <mxGeometry x="190" y="360" width="120" height="60" as="geometry" />
        </mxCell>
        <mxCell id="cfINHwRxvX_QHTuSYm5q-64" style="edgeStyle=orthogonalEdgeStyle;rounded=0;orthogonalLoop=1;jettySize=auto;html=1;exitX=0;exitY=0.5;exitDx=0;exitDy=0;entryX=1;entryY=0.5;entryDx=0;entryDy=0;" parent="1" source="cfINHwRxvX_QHTuSYm5q-48" target="cfINHwRxvX_QHTuSYm5q-59" edge="1">
          <mxGeometry relative="1" as="geometry" />
        </mxCell>
        <mxCell id="cfINHwRxvX_QHTuSYm5q-48" value="Игровой экран" style="rounded=1;whiteSpace=wrap;html=1;" parent="1" vertex="1">
          <mxGeometry x="10" y="280" width="120" height="60" as="geometry" />
        </mxCell>
        <mxCell id="cfINHwRxvX_QHTuSYm5q-72" value="клик по кнопке" style="edgeStyle=orthogonalEdgeStyle;rounded=0;orthogonalLoop=1;jettySize=auto;html=1;exitX=0;exitY=0.5;exitDx=0;exitDy=0;entryX=1;entryY=0.5;entryDx=0;entryDy=0;" parent="1" source="cfINHwRxvX_QHTuSYm5q-49" target="cfINHwRxvX_QHTuSYm5q-71" edge="1">
          <mxGeometry relative="1" as="geometry" />
        </mxCell>
        <mxCell id="cfINHwRxvX_QHTuSYm5q-49" value="Жизни" style="rounded=1;whiteSpace=wrap;html=1;" parent="1" vertex="1">
          <mxGeometry x="-330" y="150" width="120" height="30" as="geometry" />
        </mxCell>
        <mxCell id="cfINHwRxvX_QHTuSYm5q-82" value="клик по кнопке" style="edgeStyle=orthogonalEdgeStyle;rounded=0;orthogonalLoop=1;jettySize=auto;html=1;exitX=0;exitY=0.5;exitDx=0;exitDy=0;entryX=1;entryY=0.5;entryDx=0;entryDy=0;" parent="1" source="cfINHwRxvX_QHTuSYm5q-50" target="cfINHwRxvX_QHTuSYm5q-81" edge="1">
          <mxGeometry relative="1" as="geometry" />
        </mxCell>
        <mxCell id="cfINHwRxvX_QHTuSYm5q-50" value="Монеты&lt;span style=&quot;color: rgba(0 , 0 , 0 , 0) ; font-family: monospace ; font-size: 0px&quot;&gt;%3CmxGraphModel%3E%3Croot%3E%3CmxCell%20id%3D%220%22%2F%3E%3CmxCell%20id%3D%221%22%20parent%3D%220%22%2F%3E%3CmxCell%20id%3D%222%22%20value%3D%22%D0%96%D0%B8%D0%B7%D0%BD%D0%B8%22%20style%3D%22rounded%3D1%3BwhiteSpace%3Dwrap%3Bhtml%3D1%3B%22%20vertex%3D%221%22%20parent%3D%221%22%3E%3CmxGeometry%20x%3D%22840%22%20y%3D%22630%22%20width%3D%22120%22%20height%3D%2230%22%20as%3D%22geometry%22%2F%3E%3C%2FmxCell%3E%3C%2Froot%3E%3C%2FmxGraphModel%3E&lt;/span&gt;" style="rounded=1;whiteSpace=wrap;html=1;" parent="1" vertex="1">
          <mxGeometry x="-330" y="240" width="120" height="30" as="geometry" />
        </mxCell>
        <mxCell id="cfINHwRxvX_QHTuSYm5q-94" value="клик по кнопке" style="edgeStyle=orthogonalEdgeStyle;rounded=0;orthogonalLoop=1;jettySize=auto;html=1;exitX=0;exitY=0.5;exitDx=0;exitDy=0;entryX=1;entryY=0.5;entryDx=0;entryDy=0;" parent="1" source="cfINHwRxvX_QHTuSYm5q-51" target="cfINHwRxvX_QHTuSYm5q-93" edge="1">
          <mxGeometry relative="1" as="geometry" />
        </mxCell>
        <mxCell id="cfINHwRxvX_QHTuSYm5q-51" value="Звезды" style="rounded=1;whiteSpace=wrap;html=1;" parent="1" vertex="1">
          <mxGeometry x="-330" y="390" width="120" height="30" as="geometry" />
        </mxCell>
        <mxCell id="cfINHwRxvX_QHTuSYm5q-96" value="клик по кнопке" style="edgeStyle=orthogonalEdgeStyle;rounded=0;orthogonalLoop=1;jettySize=auto;html=1;exitX=0;exitY=0.5;exitDx=0;exitDy=0;entryX=1;entryY=0.5;entryDx=0;entryDy=0;" parent="1" source="cfINHwRxvX_QHTuSYm5q-52" target="cfINHwRxvX_QHTuSYm5q-95" edge="1">
          <mxGeometry relative="1" as="geometry" />
        </mxCell>
        <mxCell id="cfINHwRxvX_QHTuSYm5q-52" value="Настройки" style="rounded=1;whiteSpace=wrap;html=1;" parent="1" vertex="1">
          <mxGeometry x="-330" y="475" width="120" height="30" as="geometry" />
        </mxCell>
        <mxCell id="cfINHwRxvX_QHTuSYm5q-65" style="edgeStyle=orthogonalEdgeStyle;rounded=0;orthogonalLoop=1;jettySize=auto;html=1;exitX=0;exitY=0.5;exitDx=0;exitDy=0;entryX=1;entryY=0.5;entryDx=0;entryDy=0;" parent="1" source="cfINHwRxvX_QHTuSYm5q-59" target="cfINHwRxvX_QHTuSYm5q-49" edge="1">
          <mxGeometry relative="1" as="geometry" />
        </mxCell>
        <mxCell id="cfINHwRxvX_QHTuSYm5q-66" style="edgeStyle=orthogonalEdgeStyle;rounded=0;orthogonalLoop=1;jettySize=auto;html=1;exitX=0;exitY=0.5;exitDx=0;exitDy=0;entryX=1;entryY=0.5;entryDx=0;entryDy=0;" parent="1" source="cfINHwRxvX_QHTuSYm5q-59" target="cfINHwRxvX_QHTuSYm5q-50" edge="1">
          <mxGeometry relative="1" as="geometry" />
        </mxCell>
        <mxCell id="cfINHwRxvX_QHTuSYm5q-67" style="edgeStyle=orthogonalEdgeStyle;rounded=0;orthogonalLoop=1;jettySize=auto;html=1;exitX=0;exitY=0.5;exitDx=0;exitDy=0;entryX=1;entryY=0.5;entryDx=0;entryDy=0;" parent="1" source="cfINHwRxvX_QHTuSYm5q-59" target="cfINHwRxvX_QHTuSYm5q-51" edge="1">
          <mxGeometry relative="1" as="geometry" />
        </mxCell>
        <mxCell id="cfINHwRxvX_QHTuSYm5q-68" style="edgeStyle=orthogonalEdgeStyle;rounded=0;orthogonalLoop=1;jettySize=auto;html=1;exitX=0;exitY=0.5;exitDx=0;exitDy=0;entryX=1;entryY=0.5;entryDx=0;entryDy=0;" parent="1" source="cfINHwRxvX_QHTuSYm5q-59" target="cfINHwRxvX_QHTuSYm5q-52" edge="1">
          <mxGeometry relative="1" as="geometry" />
        </mxCell>
        <mxCell id="cfINHwRxvX_QHTuSYm5q-69" style="edgeStyle=orthogonalEdgeStyle;rounded=0;orthogonalLoop=1;jettySize=auto;html=1;exitX=0;exitY=0.5;exitDx=0;exitDy=0;entryX=1;entryY=0.5;entryDx=0;entryDy=0;" parent="1" source="cfINHwRxvX_QHTuSYm5q-59" target="cfINHwRxvX_QHTuSYm5q-60" edge="1">
          <mxGeometry relative="1" as="geometry" />
        </mxCell>
        <mxCell id="cfINHwRxvX_QHTuSYm5q-70" style="edgeStyle=orthogonalEdgeStyle;rounded=0;orthogonalLoop=1;jettySize=auto;html=1;exitX=0;exitY=0.5;exitDx=0;exitDy=0;entryX=1;entryY=0.5;entryDx=0;entryDy=0;" parent="1" source="cfINHwRxvX_QHTuSYm5q-59" target="cfINHwRxvX_QHTuSYm5q-61" edge="1">
          <mxGeometry relative="1" as="geometry" />
        </mxCell>
        <mxCell id="cfINHwRxvX_QHTuSYm5q-59" value="Панель управления" style="rounded=1;whiteSpace=wrap;html=1;" parent="1" vertex="1">
          <mxGeometry x="-150" y="280" width="120" height="60" as="geometry" />
        </mxCell>
        <mxCell id="cfINHwRxvX_QHTuSYm5q-98" value="клик по кнопке" style="edgeStyle=orthogonalEdgeStyle;rounded=0;orthogonalLoop=1;jettySize=auto;html=1;exitX=0;exitY=0.5;exitDx=0;exitDy=0;entryX=1;entryY=0.5;entryDx=0;entryDy=0;" parent="1" source="cfINHwRxvX_QHTuSYm5q-60" target="cfINHwRxvX_QHTuSYm5q-97" edge="1">
          <mxGeometry relative="1" as="geometry" />
        </mxCell>
        <mxCell id="cfINHwRxvX_QHTuSYm5q-60" value="Задания" style="rounded=1;whiteSpace=wrap;html=1;" parent="1" vertex="1">
          <mxGeometry x="-330" y="555" width="120" height="30" as="geometry" />
        </mxCell>
        <mxCell id="cfINHwRxvX_QHTuSYm5q-102" value="клик по кнопке" style="edgeStyle=orthogonalEdgeStyle;rounded=0;orthogonalLoop=1;jettySize=auto;html=1;exitX=0;exitY=0.5;exitDx=0;exitDy=0;" parent="1" source="cfINHwRxvX_QHTuSYm5q-61" target="cfINHwRxvX_QHTuSYm5q-101" edge="1">
          <mxGeometry relative="1" as="geometry" />
        </mxCell>
        <mxCell id="cfINHwRxvX_QHTuSYm5q-61" value="Уровень" style="rounded=1;whiteSpace=wrap;html=1;" parent="1" vertex="1">
          <mxGeometry x="-330" y="625" width="120" height="30" as="geometry" />
        </mxCell>
        <mxCell id="cfINHwRxvX_QHTuSYm5q-75" style="edgeStyle=orthogonalEdgeStyle;rounded=0;orthogonalLoop=1;jettySize=auto;html=1;exitX=0;exitY=0.5;exitDx=0;exitDy=0;entryX=1;entryY=0.5;entryDx=0;entryDy=0;" parent="1" source="cfINHwRxvX_QHTuSYm5q-71" target="cfINHwRxvX_QHTuSYm5q-73" edge="1">
          <mxGeometry relative="1" as="geometry" />
        </mxCell>
        <mxCell id="cfINHwRxvX_QHTuSYm5q-76" style="edgeStyle=orthogonalEdgeStyle;rounded=0;orthogonalLoop=1;jettySize=auto;html=1;exitX=0;exitY=0.5;exitDx=0;exitDy=0;entryX=1;entryY=0.75;entryDx=0;entryDy=0;" parent="1" source="cfINHwRxvX_QHTuSYm5q-71" target="cfINHwRxvX_QHTuSYm5q-74" edge="1">
          <mxGeometry relative="1" as="geometry" />
        </mxCell>
        <mxCell id="cfINHwRxvX_QHTuSYm5q-86" style="edgeStyle=orthogonalEdgeStyle;rounded=0;orthogonalLoop=1;jettySize=auto;html=1;exitX=0;exitY=0.5;exitDx=0;exitDy=0;entryX=1;entryY=0.25;entryDx=0;entryDy=0;" parent="1" source="cfINHwRxvX_QHTuSYm5q-71" target="cfINHwRxvX_QHTuSYm5q-85" edge="1">
          <mxGeometry relative="1" as="geometry" />
        </mxCell>
        <mxCell id="cfINHwRxvX_QHTuSYm5q-71" value="Открывается окно со счетчиком жизненной энергии" style="rounded=1;whiteSpace=wrap;html=1;" parent="1" vertex="1">
          <mxGeometry x="-580" y="150" width="120" height="40" as="geometry" />
        </mxCell>
        <mxCell id="cfINHwRxvX_QHTuSYm5q-79" style="edgeStyle=orthogonalEdgeStyle;rounded=0;orthogonalLoop=1;jettySize=auto;html=1;exitX=0;exitY=0.5;exitDx=0;exitDy=0;entryX=1;entryY=0.5;entryDx=0;entryDy=0;" parent="1" source="cfINHwRxvX_QHTuSYm5q-73" target="cfINHwRxvX_QHTuSYm5q-77" edge="1">
          <mxGeometry relative="1" as="geometry" />
        </mxCell>
        <mxCell id="cfINHwRxvX_QHTuSYm5q-73" value="Кнопка отправить" style="rounded=1;whiteSpace=wrap;html=1;" parent="1" vertex="1">
          <mxGeometry x="-730" y="110" width="120" height="40" as="geometry" />
        </mxCell>
        <mxCell id="cfINHwRxvX_QHTuSYm5q-80" style="edgeStyle=orthogonalEdgeStyle;rounded=0;orthogonalLoop=1;jettySize=auto;html=1;exitX=0;exitY=0.5;exitDx=0;exitDy=0;entryX=1;entryY=0.5;entryDx=0;entryDy=0;" parent="1" source="cfINHwRxvX_QHTuSYm5q-74" target="cfINHwRxvX_QHTuSYm5q-77" edge="1">
          <mxGeometry relative="1" as="geometry" />
        </mxCell>
        <mxCell id="cfINHwRxvX_QHTuSYm5q-74" value="Кнопка попросить" style="rounded=1;whiteSpace=wrap;html=1;" parent="1" vertex="1">
          <mxGeometry x="-730" y="170" width="120" height="40" as="geometry" />
        </mxCell>
        <mxCell id="cfINHwRxvX_QHTuSYm5q-77" value="FAcebook" style="rounded=1;whiteSpace=wrap;html=1;" parent="1" vertex="1">
          <mxGeometry x="-947" y="130" width="120" height="40" as="geometry" />
        </mxCell>
        <mxCell id="cfINHwRxvX_QHTuSYm5q-84" style="edgeStyle=orthogonalEdgeStyle;rounded=0;orthogonalLoop=1;jettySize=auto;html=1;exitX=0;exitY=0.5;exitDx=0;exitDy=0;entryX=1;entryY=0.5;entryDx=0;entryDy=0;" parent="1" source="cfINHwRxvX_QHTuSYm5q-81" target="cfINHwRxvX_QHTuSYm5q-83" edge="1">
          <mxGeometry relative="1" as="geometry" />
        </mxCell>
        <mxCell id="cfINHwRxvX_QHTuSYm5q-92" style="edgeStyle=orthogonalEdgeStyle;rounded=0;orthogonalLoop=1;jettySize=auto;html=1;exitX=0;exitY=0.5;exitDx=0;exitDy=0;entryX=1;entryY=0.5;entryDx=0;entryDy=0;" parent="1" source="cfINHwRxvX_QHTuSYm5q-81" target="cfINHwRxvX_QHTuSYm5q-90" edge="1">
          <mxGeometry relative="1" as="geometry" />
        </mxCell>
        <mxCell id="cfINHwRxvX_QHTuSYm5q-81" value="Открывается окно с магазином" style="rounded=1;whiteSpace=wrap;html=1;" parent="1" vertex="1">
          <mxGeometry x="-580" y="240" width="120" height="30" as="geometry" />
        </mxCell>
        <mxCell id="cfINHwRxvX_QHTuSYm5q-83" value="Донат" style="rounded=1;whiteSpace=wrap;html=1;" parent="1" vertex="1">
          <mxGeometry x="-730" y="240" width="120" height="30" as="geometry" />
        </mxCell>
        <mxCell id="cfINHwRxvX_QHTuSYm5q-88" value="клик по кнопке" style="edgeStyle=orthogonalEdgeStyle;rounded=0;orthogonalLoop=1;jettySize=auto;html=1;exitX=0;exitY=0.5;exitDx=0;exitDy=0;entryX=1;entryY=0.5;entryDx=0;entryDy=0;" parent="1" source="cfINHwRxvX_QHTuSYm5q-85" target="cfINHwRxvX_QHTuSYm5q-87" edge="1">
          <mxGeometry relative="1" as="geometry" />
        </mxCell>
        <mxCell id="cfINHwRxvX_QHTuSYm5q-85" value="Кнопка &quot;крестик&quot;" style="rounded=1;whiteSpace=wrap;html=1;" parent="1" vertex="1">
          <mxGeometry x="-730" y="50" width="120" height="40" as="geometry" />
        </mxCell>
        <mxCell id="cfINHwRxvX_QHTuSYm5q-87" value="Закрывает окно" style="rounded=1;whiteSpace=wrap;html=1;" parent="1" vertex="1">
          <mxGeometry x="-947" y="50" width="120" height="40" as="geometry" />
        </mxCell>
        <mxCell id="cfINHwRxvX_QHTuSYm5q-89" value="клик по кнопке" style="edgeStyle=orthogonalEdgeStyle;rounded=0;orthogonalLoop=1;jettySize=auto;html=1;exitX=0;exitY=0.5;exitDx=0;exitDy=0;entryX=1;entryY=0.5;entryDx=0;entryDy=0;" parent="1" source="cfINHwRxvX_QHTuSYm5q-90" target="cfINHwRxvX_QHTuSYm5q-91" edge="1">
          <mxGeometry relative="1" as="geometry" />
        </mxCell>
        <mxCell id="cfINHwRxvX_QHTuSYm5q-90" value="Кнопка &quot;крестик&quot;" style="rounded=1;whiteSpace=wrap;html=1;" parent="1" vertex="1">
          <mxGeometry x="-730" y="300" width="120" height="40" as="geometry" />
        </mxCell>
        <mxCell id="cfINHwRxvX_QHTuSYm5q-91" value="Закрывает окно" style="rounded=1;whiteSpace=wrap;html=1;" parent="1" vertex="1">
          <mxGeometry x="-947" y="295" width="120" height="40" as="geometry" />
        </mxCell>
        <mxCell id="cfINHwRxvX_QHTuSYm5q-93" value="подсказка откуда брать звезды" style="rounded=1;whiteSpace=wrap;html=1;" parent="1" vertex="1">
          <mxGeometry x="-580" y="390" width="120" height="30" as="geometry" />
        </mxCell>
        <mxCell id="cfINHwRxvX_QHTuSYm5q-95" value="Открывается окно настроек" style="rounded=1;whiteSpace=wrap;html=1;" parent="1" vertex="1">
          <mxGeometry x="-580" y="475" width="120" height="30" as="geometry" />
        </mxCell>
        <mxCell id="cfINHwRxvX_QHTuSYm5q-100" value="нажать на &quot;сделать&quot;" style="edgeStyle=orthogonalEdgeStyle;rounded=0;orthogonalLoop=1;jettySize=auto;html=1;exitX=0;exitY=0.5;exitDx=0;exitDy=0;" parent="1" source="cfINHwRxvX_QHTuSYm5q-97" target="cfINHwRxvX_QHTuSYm5q-99" edge="1">
          <mxGeometry relative="1" as="geometry" />
        </mxCell>
        <mxCell id="cfINHwRxvX_QHTuSYm5q-97" value="Открывается окно с заданиями" style="rounded=1;whiteSpace=wrap;html=1;" parent="1" vertex="1">
          <mxGeometry x="-580" y="555" width="120" height="30" as="geometry" />
        </mxCell>
        <mxCell id="cfINHwRxvX_QHTuSYm5q-99" value="Используется звездочка + анимация действий" style="rounded=1;whiteSpace=wrap;html=1;" parent="1" vertex="1">
          <mxGeometry x="-850" y="540" width="120" height="45" as="geometry" />
        </mxCell>
        <mxCell id="cfINHwRxvX_QHTuSYm5q-104" value="кликнуть на кнопку играть" style="edgeStyle=orthogonalEdgeStyle;rounded=0;orthogonalLoop=1;jettySize=auto;html=1;exitX=0;exitY=0.5;exitDx=0;exitDy=0;entryX=1;entryY=0.5;entryDx=0;entryDy=0;" parent="1" source="cfINHwRxvX_QHTuSYm5q-101" target="cfINHwRxvX_QHTuSYm5q-103" edge="1">
          <mxGeometry relative="1" as="geometry" />
        </mxCell>
        <mxCell id="cfINHwRxvX_QHTuSYm5q-101" value="Открывается окно с указанием уровня + следующей игрой" style="rounded=1;whiteSpace=wrap;html=1;" parent="1" vertex="1">
          <mxGeometry x="-570" y="620" width="120" height="40" as="geometry" />
        </mxCell>
        <mxCell id="cfINHwRxvX_QHTuSYm5q-106" style="edgeStyle=orthogonalEdgeStyle;rounded=0;orthogonalLoop=1;jettySize=auto;html=1;exitX=0;exitY=0.5;exitDx=0;exitDy=0;entryX=0.5;entryY=0;entryDx=0;entryDy=0;" parent="1" source="cfINHwRxvX_QHTuSYm5q-103" target="cfINHwRxvX_QHTuSYm5q-105" edge="1">
          <mxGeometry relative="1" as="geometry" />
        </mxCell>
        <mxCell id="cfINHwRxvX_QHTuSYm5q-103" value="Открывается игровой экран с головоломкой" style="rounded=1;whiteSpace=wrap;html=1;" parent="1" vertex="1">
          <mxGeometry x="-850" y="610" width="120" height="60" as="geometry" />
        </mxCell>
        <mxCell id="cfINHwRxvX_QHTuSYm5q-108" value="объединение 3х" style="edgeStyle=orthogonalEdgeStyle;rounded=0;orthogonalLoop=1;jettySize=auto;html=1;exitX=0;exitY=0.5;exitDx=0;exitDy=0;entryX=1;entryY=0.5;entryDx=0;entryDy=0;" parent="1" source="cfINHwRxvX_QHTuSYm5q-105" target="cfINHwRxvX_QHTuSYm5q-107" edge="1">
          <mxGeometry relative="1" as="geometry" />
        </mxCell>
        <mxCell id="cfINHwRxvX_QHTuSYm5q-110" value="объединение 4х" style="edgeStyle=orthogonalEdgeStyle;rounded=0;orthogonalLoop=1;jettySize=auto;html=1;exitX=0;exitY=0.5;exitDx=0;exitDy=0;entryX=1;entryY=0.5;entryDx=0;entryDy=0;" parent="1" source="cfINHwRxvX_QHTuSYm5q-105" target="cfINHwRxvX_QHTuSYm5q-109" edge="1">
          <mxGeometry relative="1" as="geometry">
            <Array as="points">
              <mxPoint y="800" />
              <mxPoint x="-100" y="800" />
              <mxPoint x="-100" y="855" />
            </Array>
          </mxGeometry>
        </mxCell>
        <mxCell id="cfINHwRxvX_QHTuSYm5q-114" value="объединение 5" style="edgeStyle=orthogonalEdgeStyle;rounded=0;orthogonalLoop=1;jettySize=auto;html=1;exitX=0;exitY=0.5;exitDx=0;exitDy=0;entryX=1;entryY=0.5;entryDx=0;entryDy=0;" parent="1" source="cfINHwRxvX_QHTuSYm5q-105" target="cfINHwRxvX_QHTuSYm5q-111" edge="1">
          <mxGeometry relative="1" as="geometry">
            <Array as="points">
              <mxPoint x="30" y="860" />
              <mxPoint x="-85" y="860" />
              <mxPoint x="-85" y="920" />
            </Array>
          </mxGeometry>
        </mxCell>
        <mxCell id="cfINHwRxvX_QHTuSYm5q-115" value="объединение 6" style="edgeStyle=orthogonalEdgeStyle;rounded=0;orthogonalLoop=1;jettySize=auto;html=1;exitX=0;exitY=0.5;exitDx=0;exitDy=0;entryX=1;entryY=0.5;entryDx=0;entryDy=0;" parent="1" source="cfINHwRxvX_QHTuSYm5q-105" target="cfINHwRxvX_QHTuSYm5q-112" edge="1">
          <mxGeometry relative="1" as="geometry">
            <Array as="points">
              <mxPoint x="30" y="930" />
              <mxPoint x="-85" y="930" />
              <mxPoint x="-85" y="990" />
            </Array>
          </mxGeometry>
        </mxCell>
        <mxCell id="cfINHwRxvX_QHTuSYm5q-105" value="Поле с предметами" style="rounded=1;whiteSpace=wrap;html=1;" parent="1" vertex="1">
          <mxGeometry x="50" y="730" width="120" height="60" as="geometry" />
        </mxCell>
        <mxCell id="cfINHwRxvX_QHTuSYm5q-124" value="появилось пустое мето" style="edgeStyle=orthogonalEdgeStyle;rounded=0;orthogonalLoop=1;jettySize=auto;html=1;exitX=0;exitY=0.5;exitDx=0;exitDy=0;entryX=1;entryY=0.5;entryDx=0;entryDy=0;" parent="1" source="cfINHwRxvX_QHTuSYm5q-107" target="cfINHwRxvX_QHTuSYm5q-123" edge="1">
          <mxGeometry relative="1" as="geometry" />
        </mxCell>
        <mxCell id="cfINHwRxvX_QHTuSYm5q-107" value="предметы исчезли" style="rounded=1;whiteSpace=wrap;html=1;" parent="1" vertex="1">
          <mxGeometry x="-320" y="725" width="120" height="60" as="geometry" />
        </mxCell>
        <mxCell id="cfINHwRxvX_QHTuSYm5q-117" style="edgeStyle=orthogonalEdgeStyle;rounded=0;orthogonalLoop=1;jettySize=auto;html=1;exitX=0;exitY=0.5;exitDx=0;exitDy=0;entryX=1;entryY=0.5;entryDx=0;entryDy=0;" parent="1" source="cfINHwRxvX_QHTuSYm5q-109" target="cfINHwRxvX_QHTuSYm5q-113" edge="1">
          <mxGeometry relative="1" as="geometry" />
        </mxCell>
        <mxCell id="cfINHwRxvX_QHTuSYm5q-109" value="предметы исчезли, появился бонус" style="rounded=1;whiteSpace=wrap;html=1;" parent="1" vertex="1">
          <mxGeometry x="-320" y="825" width="120" height="60" as="geometry" />
        </mxCell>
        <mxCell id="cfINHwRxvX_QHTuSYm5q-118" style="edgeStyle=orthogonalEdgeStyle;rounded=0;orthogonalLoop=1;jettySize=auto;html=1;exitX=0;exitY=0.5;exitDx=0;exitDy=0;entryX=1;entryY=0.5;entryDx=0;entryDy=0;" parent="1" source="cfINHwRxvX_QHTuSYm5q-111" target="cfINHwRxvX_QHTuSYm5q-113" edge="1">
          <mxGeometry relative="1" as="geometry" />
        </mxCell>
        <mxCell id="cfINHwRxvX_QHTuSYm5q-111" value="предметы исчезли, появился бонус" style="rounded=1;whiteSpace=wrap;html=1;" parent="1" vertex="1">
          <mxGeometry x="-320" y="890" width="120" height="60" as="geometry" />
        </mxCell>
        <mxCell id="cfINHwRxvX_QHTuSYm5q-119" style="edgeStyle=orthogonalEdgeStyle;rounded=0;orthogonalLoop=1;jettySize=auto;html=1;exitX=0;exitY=0.5;exitDx=0;exitDy=0;entryX=1;entryY=0.5;entryDx=0;entryDy=0;" parent="1" source="cfINHwRxvX_QHTuSYm5q-112" target="cfINHwRxvX_QHTuSYm5q-113" edge="1">
          <mxGeometry relative="1" as="geometry" />
        </mxCell>
        <mxCell id="cfINHwRxvX_QHTuSYm5q-112" value="предметы исчезли, появился бонус" style="rounded=1;whiteSpace=wrap;html=1;" parent="1" vertex="1">
          <mxGeometry x="-320" y="960" width="120" height="60" as="geometry" />
        </mxCell>
        <mxCell id="cfINHwRxvX_QHTuSYm5q-122" value="объединение с предметом" style="edgeStyle=orthogonalEdgeStyle;rounded=0;orthogonalLoop=1;jettySize=auto;html=1;exitX=0;exitY=0.5;exitDx=0;exitDy=0;entryX=1;entryY=0.5;entryDx=0;entryDy=0;" parent="1" source="cfINHwRxvX_QHTuSYm5q-113" target="cfINHwRxvX_QHTuSYm5q-121" edge="1">
          <mxGeometry relative="1" as="geometry" />
        </mxCell>
        <mxCell id="cfINHwRxvX_QHTuSYm5q-113" value="зарядка Радужной молнии" style="rounded=1;whiteSpace=wrap;html=1;" parent="1" vertex="1">
          <mxGeometry x="-650" y="870" width="120" height="60" as="geometry" />
        </mxCell>
        <mxCell id="cfINHwRxvX_QHTuSYm5q-120" value="Объединение бонусов" style="text;html=1;strokeColor=none;fillColor=none;align=center;verticalAlign=middle;whiteSpace=wrap;rounded=0;" parent="1" vertex="1">
          <mxGeometry x="-510" y="860" width="60" height="30" as="geometry" />
        </mxCell>
        <mxCell id="cfINHwRxvX_QHTuSYm5q-121" value="Уборка всех &lt;br&gt;одинаковых предметов с поля" style="rounded=1;whiteSpace=wrap;html=1;" parent="1" vertex="1">
          <mxGeometry x="-947" y="870" width="120" height="60" as="geometry" />
        </mxCell>
        <mxCell id="cfINHwRxvX_QHTuSYm5q-123" value="предметы упали на пустые места" style="rounded=1;whiteSpace=wrap;html=1;" parent="1" vertex="1">
          <mxGeometry x="-650" y="725" width="120" height="60" as="geometry" />
        </mxCell>
        <mxCell id="cfINHwRxvX_QHTuSYm5q-126" style="edgeStyle=orthogonalEdgeStyle;rounded=0;orthogonalLoop=1;jettySize=auto;html=1;exitX=0;exitY=0.5;exitDx=0;exitDy=0;entryX=1;entryY=0.5;entryDx=0;entryDy=0;" parent="1" source="cfINHwRxvX_QHTuSYm5q-125" target="cfINHwRxvX_QHTuSYm5q-105" edge="1">
          <mxGeometry relative="1" as="geometry" />
        </mxCell>
        <mxCell id="cfINHwRxvX_QHTuSYm5q-128" style="edgeStyle=orthogonalEdgeStyle;rounded=0;orthogonalLoop=1;jettySize=auto;html=1;exitX=0;exitY=0.5;exitDx=0;exitDy=0;entryX=1;entryY=0.5;entryDx=0;entryDy=0;" parent="1" source="cfINHwRxvX_QHTuSYm5q-125" target="cfINHwRxvX_QHTuSYm5q-127" edge="1">
          <mxGeometry relative="1" as="geometry" />
        </mxCell>
        <mxCell id="cfINHwRxvX_QHTuSYm5q-134" style="edgeStyle=orthogonalEdgeStyle;rounded=0;orthogonalLoop=1;jettySize=auto;html=1;exitX=0;exitY=0.5;exitDx=0;exitDy=0;entryX=1;entryY=0.5;entryDx=0;entryDy=0;" parent="1" source="cfINHwRxvX_QHTuSYm5q-125" target="cfINHwRxvX_QHTuSYm5q-133" edge="1">
          <mxGeometry relative="1" as="geometry" />
        </mxCell>
        <mxCell id="cfINHwRxvX_QHTuSYm5q-125" value="Игровой экран с головоломками" style="rounded=1;whiteSpace=wrap;html=1;" parent="1" vertex="1">
          <mxGeometry x="270" y="920" width="120" height="60" as="geometry" />
        </mxCell>
        <mxCell id="cfINHwRxvX_QHTuSYm5q-130" style="edgeStyle=orthogonalEdgeStyle;rounded=0;orthogonalLoop=1;jettySize=auto;html=1;exitX=0;exitY=0.5;exitDx=0;exitDy=0;" parent="1" source="cfINHwRxvX_QHTuSYm5q-127" target="cfINHwRxvX_QHTuSYm5q-129" edge="1">
          <mxGeometry relative="1" as="geometry" />
        </mxCell>
        <mxCell id="cfINHwRxvX_QHTuSYm5q-148" style="edgeStyle=orthogonalEdgeStyle;rounded=0;orthogonalLoop=1;jettySize=auto;html=1;exitX=0;exitY=0.5;exitDx=0;exitDy=0;entryX=1;entryY=0.5;entryDx=0;entryDy=0;" parent="1" source="cfINHwRxvX_QHTuSYm5q-127" target="cfINHwRxvX_QHTuSYm5q-146" edge="1">
          <mxGeometry relative="1" as="geometry" />
        </mxCell>
        <mxCell id="cfINHwRxvX_QHTuSYm5q-149" style="edgeStyle=orthogonalEdgeStyle;rounded=0;orthogonalLoop=1;jettySize=auto;html=1;exitX=0;exitY=0.5;exitDx=0;exitDy=0;entryX=1;entryY=0.5;entryDx=0;entryDy=0;" parent="1" source="cfINHwRxvX_QHTuSYm5q-127" target="cfINHwRxvX_QHTuSYm5q-147" edge="1">
          <mxGeometry relative="1" as="geometry" />
        </mxCell>
        <mxCell id="cfINHwRxvX_QHTuSYm5q-127" value="Кнопки" style="rounded=1;whiteSpace=wrap;html=1;" parent="1" vertex="1">
          <mxGeometry x="60" y="1050" width="120" height="60" as="geometry" />
        </mxCell>
        <mxCell id="cfINHwRxvX_QHTuSYm5q-132" style="edgeStyle=orthogonalEdgeStyle;rounded=0;orthogonalLoop=1;jettySize=auto;html=1;exitX=0;exitY=0.5;exitDx=0;exitDy=0;entryX=1;entryY=0.5;entryDx=0;entryDy=0;" parent="1" source="cfINHwRxvX_QHTuSYm5q-129" target="cfINHwRxvX_QHTuSYm5q-131" edge="1">
          <mxGeometry relative="1" as="geometry" />
        </mxCell>
        <mxCell id="cfINHwRxvX_QHTuSYm5q-129" value="Лопата" style="rounded=1;whiteSpace=wrap;html=1;" parent="1" vertex="1">
          <mxGeometry x="-320" y="1050" width="120" height="20" as="geometry" />
        </mxCell>
        <mxCell id="cfINHwRxvX_QHTuSYm5q-131" value="Очистка клетки без траты хода" style="rounded=1;whiteSpace=wrap;html=1;" parent="1" vertex="1">
          <mxGeometry x="-640" y="1050" width="120" height="60" as="geometry" />
        </mxCell>
        <mxCell id="cfINHwRxvX_QHTuSYm5q-139" style="edgeStyle=orthogonalEdgeStyle;rounded=0;orthogonalLoop=1;jettySize=auto;html=1;exitX=0;exitY=0.5;exitDx=0;exitDy=0;entryX=1;entryY=0.5;entryDx=0;entryDy=0;" parent="1" source="cfINHwRxvX_QHTuSYm5q-133" target="cfINHwRxvX_QHTuSYm5q-138" edge="1">
          <mxGeometry relative="1" as="geometry" />
        </mxCell>
        <mxCell id="cfINHwRxvX_QHTuSYm5q-145" style="edgeStyle=orthogonalEdgeStyle;rounded=0;orthogonalLoop=1;jettySize=auto;html=1;exitX=0;exitY=0.5;exitDx=0;exitDy=0;entryX=1;entryY=0.5;entryDx=0;entryDy=0;" parent="1" source="cfINHwRxvX_QHTuSYm5q-133" target="cfINHwRxvX_QHTuSYm5q-140" edge="1">
          <mxGeometry relative="1" as="geometry" />
        </mxCell>
        <mxCell id="cfINHwRxvX_QHTuSYm5q-133" value="Требования" style="rounded=1;whiteSpace=wrap;html=1;" parent="1" vertex="1">
          <mxGeometry x="60" y="1190" width="120" height="60" as="geometry" />
        </mxCell>
        <mxCell id="cfINHwRxvX_QHTuSYm5q-135" value="Гномы" style="rounded=1;whiteSpace=wrap;html=1;" parent="1" vertex="1">
          <mxGeometry x="-320" y="1330" width="120" height="60" as="geometry" />
        </mxCell>
        <mxCell id="cfINHwRxvX_QHTuSYm5q-136" value="Коробки" style="rounded=1;whiteSpace=wrap;html=1;" parent="1" vertex="1">
          <mxGeometry x="-320" y="1260" width="120" height="60" as="geometry" />
        </mxCell>
        <mxCell id="cfINHwRxvX_QHTuSYm5q-138" value="Собрать предметы" style="rounded=1;whiteSpace=wrap;html=1;" parent="1" vertex="1">
          <mxGeometry x="-110" y="1190" width="120" height="60" as="geometry" />
        </mxCell>
        <mxCell id="cfINHwRxvX_QHTuSYm5q-141" style="edgeStyle=orthogonalEdgeStyle;rounded=0;orthogonalLoop=1;jettySize=auto;html=1;exitX=0;exitY=0.5;exitDx=0;exitDy=0;entryX=1;entryY=0.5;entryDx=0;entryDy=0;" parent="1" source="cfINHwRxvX_QHTuSYm5q-140" target="cfINHwRxvX_QHTuSYm5q-136" edge="1">
          <mxGeometry relative="1" as="geometry" />
        </mxCell>
        <mxCell id="cfINHwRxvX_QHTuSYm5q-142" style="edgeStyle=orthogonalEdgeStyle;rounded=0;orthogonalLoop=1;jettySize=auto;html=1;exitX=0;exitY=0.5;exitDx=0;exitDy=0;entryX=1;entryY=0.5;entryDx=0;entryDy=0;" parent="1" source="cfINHwRxvX_QHTuSYm5q-140" target="cfINHwRxvX_QHTuSYm5q-135" edge="1">
          <mxGeometry relative="1" as="geometry" />
        </mxCell>
        <mxCell id="cfINHwRxvX_QHTuSYm5q-144" style="edgeStyle=orthogonalEdgeStyle;rounded=0;orthogonalLoop=1;jettySize=auto;html=1;exitX=0;exitY=0.5;exitDx=0;exitDy=0;entryX=1;entryY=0.5;entryDx=0;entryDy=0;" parent="1" source="cfINHwRxvX_QHTuSYm5q-140" target="cfINHwRxvX_QHTuSYm5q-143" edge="1">
          <mxGeometry relative="1" as="geometry" />
        </mxCell>
        <mxCell id="cfINHwRxvX_QHTuSYm5q-140" value="Убрать мусор" style="rounded=1;whiteSpace=wrap;html=1;" parent="1" vertex="1">
          <mxGeometry x="-110" y="1270" width="120" height="60" as="geometry" />
        </mxCell>
        <mxCell id="cfINHwRxvX_QHTuSYm5q-143" value="Коробки и гномы" style="rounded=1;whiteSpace=wrap;html=1;" parent="1" vertex="1">
          <mxGeometry x="-320" y="1400" width="120" height="60" as="geometry" />
        </mxCell>
        <mxCell id="cfINHwRxvX_QHTuSYm5q-146" value="Грабли" style="rounded=1;whiteSpace=wrap;html=1;" parent="1" vertex="1">
          <mxGeometry x="-320" y="1090" width="120" height="20" as="geometry" />
        </mxCell>
        <mxCell id="cfINHwRxvX_QHTuSYm5q-147" value="Перчатки" style="rounded=1;whiteSpace=wrap;html=1;" parent="1" vertex="1">
          <mxGeometry x="-320" y="1130" width="120" height="20" as="geometry" />
        </mxCell>
        <mxCell id="S18tKAUqBDPmxKwiJmKW-1" value="&lt;h1&gt;Блок-схема&lt;/h1&gt;&lt;p&gt;Схема взаимодействия.&lt;/p&gt;" style="text;html=1;strokeColor=none;fillColor=none;spacing=5;spacingTop=-20;whiteSpace=wrap;overflow=hidden;rounded=0;" vertex="1" parent="1">
          <mxGeometry x="190" y="40" width="190" height="120" as="geometry" />
        </mxCell>
      </root>
    </mxGraphModel>
  </diagram>
</mxfile>
